<?xml version="1.0" encoding="UTF-8"?>
<mxfile host="app.diagrams.net">
  <diagram name="Detailed Architecture Diagram">
    <mxGraphModel dx="1600" dy="1200" grid="1" gridSize="10" guides="1" tooltips="1" connect="1" arrows="1" fold="1" page="1" pageScale="1" pageWidth="827" pageHeight="1169">
      <root>
        <mxCell id="0"/>
        <mxCell id="1" parent="0"/>

        <!-- User -->
        <mxCell id="2" value="👤 User
- Uploads .docx
- Chooses template/style
- Views and downloads summary
- Manages own preferences" style="shape=ellipse;whiteSpace=wrap;html=1;" vertex="1" parent="1">
          <mxGeometry x="40" y="300" width="180" height="100" as="geometry"/>
        </mxCell>

        <!-- Web Frontend -->
        <mxCell id="3" value="🌐 Web Frontend
- UI interaction (React/HTMX)
- File upload & session
- Sends data to backend API" style="rounded=1;whiteSpace=wrap;html=1;" vertex="1" parent="1">
          <mxGeometry x="250" y="300" width="200" height="100" as="geometry"/>
        </mxCell>

        <!-- Auth Service -->
        <mxCell id="4" value="🔐 Auth Service
- Login, MFA, SSO (Azure AD)
- Session handling
- Auth tokens" style="rounded=1;whiteSpace=wrap;html=1;fillColor=#f5f5f5;" vertex="1" parent="1">
          <mxGeometry x="490" y="120" width="220" height="80" as="geometry"/>
        </mxCell>

        <!-- User Preferences -->
        <mxCell id="5" value="⚙️ User Preferences
- Font, logo, tone
- Linked to user ID
- Used in prompt/doc generation" style="rounded=1;whiteSpace=wrap;html=1;fillColor=#ede7f6;" vertex="1" parent="1">
          <mxGeometry x="740" y="120" width="200" height="80" as="geometry"/>
        </mxCell>

        <!-- PII Handler -->
        <mxCell id="6" value="🕵️ PII Handler
- Detects & replaces PII (names, orgs)
- Encrypts original map in memory
- De-anonymizes after generation" style="rounded=1;whiteSpace=wrap;html=1;fillColor=#fff2cc;" vertex="1" parent="1">
          <mxGeometry x="490" y="240" width="220" height="100" as="geometry"/>
        </mxCell>

        <!-- OpenAI Engine -->
        <mxCell id="7" value="🧠 OpenAI Engine
- Builds prompt from text, preferences, template
- Handles token limits & chunking
- Multi-step calls, merging output" style="rounded=1;whiteSpace=wrap;html=1;fillColor=#e1f5fe;" vertex="1" parent="1">
          <mxGeometry x="490" y="360" width="220" height="100" as="geometry"/>
        </mxCell>

        <!-- Docx Formatter -->
        <mxCell id="8" value="📄 DOCX Formatter
- Applies design template
- Re-inserts PII where needed
- Outputs styled .docx file" style="rounded=1;whiteSpace=wrap;html=1;fillColor=#fce4ec;" vertex="1" parent="1">
          <mxGeometry x="490" y="480" width="220" height="80" as="geometry"/>
        </mxCell>

        <!-- Database -->
        <mxCell id="9" value="🗄️ Database
- User profiles & preferences
- Uploaded docs metadata
- Summary history
- Audit logs" style="shape=cylinder;whiteSpace=wrap;html=1;fillColor=#e0f7fa;" vertex="1" parent="1">
          <mxGeometry x="740" y="320" width="200" height="100" as="geometry"/>
        </mxCell>

        <!-- Arrows -->
        <mxCell id="10" style="endArrow=block;" edge="1" parent="1" source="2" target="3"><mxGeometry relative="1" as="geometry"/></mxCell>
        <mxCell id="11" style="endArrow=block;" edge="1" parent="1" source="3" target="4"><mxGeometry relative="1" as="geometry"/></mxCell>
        <mxCell id="12" style="endArrow=block;" edge="1" parent="1" source="4" target="5"><mxGeometry relative="1" as="geometry"/></mxCell>
        <mxCell id="13" style="endArrow=block;" edge="1" parent="1" source="3" target="6"><mxGeometry relative="1" as="geometry"/></mxCell>
        <mxCell id="14" style="endArrow=block;" edge="1" parent="1" source="6" target="7"><mxGeometry relative="1" as="geometry"/></mxCell>
        <mxCell id="15" style="endArrow=block;" edge="1" parent="1" source="7" target="8"><mxGeometry relative="1" as="geometry"/></mxCell>
        <mxCell id="16" style="endArrow=block;" edge="1" parent="1" source="6" target="9"><mxGeometry relative="1" as="geometry"/></mxCell>
        <mxCell id="17" style="endArrow=block;" edge="1" parent="1" source="7" target="9"><mxGeometry relative="1" as="geometry"/></mxCell>
        <mxCell id="18" style="endArrow=block;" edge="1" parent="1" source="8" target="9"><mxGeometry relative="1" as="geometry"/></mxCell>
        <mxCell id="19" style="endArrow=block;" edge="1" parent="1" source="5" target="6"><mxGeometry relative="1" as="geometry"/></mxCell>
      </root>
    </mxGraphModel>
  </diagram>
</mxfile>
